inDegrees=no
num_controls=7
num_derivatives=13
num_iterations=97
num_multipliers=7
num_parameters=0
num_slacks=7
num_states=26
objective=0.445714
objective_accelerations=0.057128
objective_balance=0.003395
objective_effort=0.022738
objective_height=0.356909
objective_ligament=0.005544
solver_duration=1327.885574
status=Solve_Succeeded
success=true
DataType=double
version=3
OpenSimVersion=4.5
endheader
time	/jointset/ground_pelvis/pelvis_tilt/value	/jointset/ground_pelvis/pelvis_tx/value	/jointset/ground_pelvis/pelvis_ty/value	/jointset/hip_l/hip_flexion_l/value	/jointset/hip_l/hip_adduction_l/value	/jointset/hip_l/hip_rotation_l/value	/jointset/back/lumbar_extension/value	/jointset/patellofemoral_l/patellar_flexion_l/value	/jointset/knee_l/knee_flexion_l/value	/jointset/knee_l/knee_adduction_l/value	/jointset/knee_l/knee_rotation_l/value	/jointset/ankle_l/ankle_angle_l/value	/jointset/subtalar_l/subtalar_angle_l/value	/jointset/ground_pelvis/pelvis_tilt/speed	/jointset/ground_pelvis/pelvis_tx/speed	/jointset/ground_pelvis/pelvis_ty/speed	/jointset/hip_l/hip_flexion_l/speed	/jointset/hip_l/hip_adduction_l/speed	/jointset/hip_l/hip_rotation_l/speed	/jointset/back/lumbar_extension/speed	/jointset/patellofemoral_l/patellar_flexion_l/speed	/jointset/knee_l/knee_flexion_l/speed	/jointset/knee_l/knee_adduction_l/speed	/jointset/knee_l/knee_rotation_l/speed	/jointset/ankle_l/ankle_angle_l/speed	/jointset/subtalar_l/subtalar_angle_l/speed	/forceset/tau_hip_flexion_l	/forceset/tau_hip_adduction_l	/forceset/tau_hip_rotation_l	/forceset/tau_knee_flexion_l	/forceset/tau_ankle_angle_l	/forceset/tau_subtalar_angle_l	/forceset/tau_lumbar_extension	lambda_cid13_p0	lambda_cid13_p1	lambda_cid13_p2	lambda_cid13_p3	lambda_cid13_p4	lambda_cid13_p5	lambda_cid14_p0	/jointset/ground_pelvis/pelvis_tilt/accel	/jointset/ground_pelvis/pelvis_tx/accel	/jointset/ground_pelvis/pelvis_ty/accel	/jointset/hip_l/hip_flexion_l/accel	/jointset/hip_l/hip_adduction_l/accel	/jointset/hip_l/hip_rotation_l/accel	/jointset/back/lumbar_extension/accel	/jointset/patellofemoral_l/patellar_flexion_l/accel	/jointset/knee_l/knee_flexion_l/accel	/jointset/knee_l/knee_adduction_l/accel	/jointset/knee_l/knee_rotation_l/accel	/jointset/ankle_l/ankle_angle_l/accel	/jointset/subtalar_l/subtalar_angle_l/accel	gamma_cid13_p0	gamma_cid13_p1	gamma_cid13_p2	gamma_cid13_p3	gamma_cid13_p4	gamma_cid13_p5	gamma_cid14_p0
1.5	-0.363058268892589	-0.01965016334785904	0.7632561133334639	1.094518640589663	-0.435163308600562	-0.2113662983786222	-0.2244476519908711	0.8037444698635134	0.8037444698636688	-0.1321125041934756	-0.1444738643012571	0.1341651430582764	-0.01617160984501269	0.6656423678709847	0.2674544351216199	0.5278171694531131	-2.431371809091902	0.2113890367271709	-0.7135118352507501	0.3178158644970425	-2.01377621252759	-2.013776212527381	-0.127832168131735	0.1395033047251803	-0.4122881060855241	0.03101928137408499	-0.1728740257844574	0.03599601752575381	-0.00798972884317109	-0.202369097257595	0.03929161594068039	0.03776601424925748	0.1671488222609467	-19.60492481952424	-15.79831815303652	5.414414693641837	-6.779990117568717	-520.2488128834469	-56.60624037651514	-24.97734209963499	0.6601400578922894	0.6815892023458472	-0.5158023104129019	-1.27196297852656	0.7004451612900193	-0.1691005688691199	1.449358206007219	-1.318189723875863	-1.318189723875766	0.1177826613122875	0.2307965538078059	-0.5114071510570511	0.4974268265008129	4.922702285482243e-07	5.401525909340015e-07	-2.82738360750485e-06	-9.047880358219023e-08	7.120340029384459e-07	1.935531226094568e-08	4.572701820307447e-07
1.51	-0.3563689139512887	-0.01694184656110566	0.7685074169124545	1.070143183416504	-0.4330158753259785	-0.2185087993634754	-0.2211983533402404	0.7835432645887767	0.7835432645886988	-0.1333877492951261	-0.1430687759892023	0.1300169147362089	-0.01583829265461015	0.6721320370868615	0.2741690776804917	0.5223288387328638	-2.443369330341353	0.2180725804452342	-0.7148651512511769	0.3320017069320559	-2.026174439906576	-2.0261744399065	-0.1272290161769934	0.141512731131772	-0.4172882415366894	0.03564392412164363	-0.1669723403986999	0.03515621125435105	-0.007622892000520397	-0.199306597465588	0.03907935909539399	0.03708891736028488	0.1623216179995738	-19.45929691984414	-15.54112331628824	5.386397503871453	-6.538223002148188	-516.2399771597662	-56.81869081787596	-25.88873629991376	0.628908509793796	0.6604605013630198	-0.5824455730913195	-1.111078891565098	0.6485691907048187	-0.09962572193209591	1.396873457688681	-1.15715391532126	-1.157153915341385	0.02992770482984176	0.1854626885816401	-0.4838778314702572	0.4449027558307176	4.160194036580414e-07	1.045662800859946e-06	-1.885595192058954e-06	8.606048122250099e-08	6.018627174165759e-07	1.40232991988226e-07	4.031283567595971e-07
1.52	-0.3496175566865578	-0.01416757160502253	0.7737004177601906	1.04565826459217	-0.4308023545714864	-0.2256610692295941	-0.2178084610261712	0.7632267741061652	0.7632267741058567	-0.1346572936287663	-0.1416437040121909	0.1258207728417647	-0.01545874508534257	0.6780428325570756	0.2806460689875713	0.5161566232022008	-2.453264139327234	0.2246065327089121	-0.7154656115037106	0.3459345971846806	-2.036833254102016	-2.036833254102074	-0.1266920145312621	0.1435000377182364	-0.4218708205608143	0.04026535714709555	-0.1610706550129363	0.03431640498294531	-0.007256055157807193	-0.1962440976735866	0.03886710225010514	0.03641182047130639	0.1574944137382091	-19.31694732337172	-15.28648922075221	5.362370238164567	-6.326002875662654	-512.2966839607169	-57.07727150525861	-26.79971794089488	0.5443653087597131	0.634058951987422	-0.6525792724956428	-0.8514205258125523	0.6705268704129272	-0.0185294192905437	1.398767769529437	-0.9703070871667229	-0.9703070871666997	0.1045525995102533	0.2263725897823801	-0.4278958656489711	0.4967848820794678	3.901469309617511e-07	1.33122084495017e-06	-1.465384916459258e-06	1.736030090173499e-07	5.73550978047137e-07	2.318780414765387e-07	3.844629207078692e-07
1.53	-0.3428099980463066	-0.01132979894902695	0.7788283733291368	1.021084777055611	-0.4285243720708405	-0.2328158999373068	-0.2142808273434023	0.7428122953281785	0.7428122953279962	-0.1359218641724894	-0.1401990640776168	0.1215808235287378	-0.01503317255013283	0.6833594904497018	0.2868592529601856	0.5093267197597309	-2.461065027740288	0.2309643406997333	-0.7154176559246458	0.3595301128133612	-2.045761634929485	-2.045761634929831	-0.1261985243614481	0.1454010307253207	-0.4260463483538797	0.0448515197589355	-0.1550033180591815	0.03322349763713094	-0.006909081137659785	-0.1934796943470272	0.03889103037047456	0.03558604450228993	0.1525002478837517	-19.11453116703645	-14.9742472539666	5.325098406720544	-6.059900697570164	-508.4873291736867	-57.26931416836011	-27.71030454310508	0.5089230508104047	0.6075992982244511	-0.7142287800173679	-0.6891442656671236	0.6145976482765015	0.02927164609304498	1.33063947617608	-0.8090563312464543	-0.8090563312895802	0.02545057659696312	0.1675618715252769	-0.4014342429247209	0.4398569634298024	4.178014574714714e-07	1.383079712839944e-06	-1.599351414446142e-06	1.665864824892424e-07	6.322150064646556e-07	2.924634213359488e-07	4.034911482017746e-07
1.54	-0.3359525514228698	-0.008431364217640029	0.7838848232836793	0.9964443363816003	-0.4261835735133146	-0.2399676883693116	-0.2106190993010186	0.7223175421917744	0.7223175421917163	-0.1371807591443353	-0.1387362943699041	0.1173013083364222	-0.01456167338626598	0.6880204291941825	0.2927784840658409	0.5018555003214732	-2.46665476681795	0.2371697440849469	-0.7148571563620593	0.3727534691075904	-2.052888125785334	-2.052888125785967	-0.1255569001564345	0.1471259923465589	-0.4297839964185209	0.04945068287851745	-0.1489359811054204	0.03213059029131503	-0.006562107117490361	-0.1907152910204703	0.03891495849084242	0.03476026853327053	0.1475060820293018	-18.91365736085592	-14.66540359679439	5.292559556674982	-5.832220444530514	-504.7171252756228	-57.51040311871717	-28.62120941542154	0.4132214791306694	0.5752683785956787	-0.7808424716531898	-0.4091906587339606	0.6400459492914292	0.08397937741378329	1.324335902639167	-0.6099290928427895	-0.6099290928427828	0.1341794065501556	0.1911663126132009	-0.3403199199641453	0.4993849836278703	4.258278384126028e-07	1.489920219942954e-06	-1.591568089426824e-06	1.84284560286471e-07	6.587191136763933e-07	3.485672523083249e-07	4.115766054562672e-07
